<svg xmlns="http://www.w3.org/2000/svg" viewBox="0 0 1600 900"><defs>
<linearGradient id="sky" x1="0" y1="0" x2="0" y2="1">
  <stop offset="0" stop-color="#3b2f4d"/><stop offset="1" stop-color="#1c1730"/>
</linearGradient>
<linearGradient id="road" x1="0" y1="0" x2="0" y2="1">
  <stop offset="0" stop-color="#10151c"/><stop offset="1" stop-color="#070a0f"/>
</linearGradient>
<linearGradient id="body" x1="0" y1="0" x2="0" y2="1">
  <stop offset="0" stop-color="#2e343c"/><stop offset="1" stop-color="#171b21"/>
</linearGradient>
<linearGradient id="glass" x1="0" y1="0" x2="0" y2="1">
  <stop offset="0" stop-color="#c8d6e6"/><stop offset="1" stop-color="#5c718a"/>
</linearGradient>
<radialGradient id="glow" cx="0.5" cy="0.42" r="0.75">
  <stop offset="0" stop-color="#ffffff" stop-opacity="0.16"/><stop offset="1" stop-color="#ffffff" stop-opacity="0"/>
</radialGradient>
</defs><rect width="1600" height="900" fill="url(#sky)"/><rect width="1600" height="900" fill="url(#glow)"/><rect y="640" width="1600" height="260" fill="url(#road)"/><rect y="636" width="1600" height="4" fill="#ffffff" opacity="0.10"/><g>
<path d="M228 704 L238 560 Q242 500 300 490 L380 478 Q440 420 540 416 L1150 416 Q1290 420 1340 500 L1364 560 Q1376 600 1378 660 L1380 704 Q1380 720 1352 720 L256 720 Q228 720 228 704 Z" fill="url(#body)"/>
<path d="M404 478 Q456 430 540 428 L1140 428 Q1256 432 1306 494 L860 494 L860 432 L844 432 L844 494 Z" fill="url(#glass)" opacity="0.92"/>
<rect x="234" y="632" width="1140" height="16" fill="#ffffff" opacity="0.06"/>
<path d="M1344 560 L1372 588 L1376 622 L1330 596 Z" fill="#e8edf4" opacity="0.85"/>
<path d="M240 556 L292 540 L302 568 L246 584 Z" fill="#f3d08a" opacity="0.9"/>
</g><circle cx="470" cy="700" r="86" fill="#0b0e12"/><circle cx="470" cy="700" r="52" fill="#1d2530"/><circle cx="470" cy="700" r="20" fill="#3a4757"/><circle cx="1150" cy="700" r="86" fill="#0b0e12"/><circle cx="1150" cy="700" r="52" fill="#1d2530"/><circle cx="1150" cy="700" r="20" fill="#3a4757"/><ellipse cx="800" cy="712" rx="560" ry="26" fill="#000000" opacity="0.35"/></svg>